<svg width="685" height="150" viewBox="0 0 685 150" fill="none" xmlns="http://www.w3.org/2000/svg">
<path d="M657.896 0C672.865 1.17907e-05 685 12.0883 685 27V123C685 137.912 672.865 150 657.896 150H27.1045C12.1353 150 9.70124e-08 137.912 0 123V27C1.55229e-06 12.0883 12.1352 0 27.1045 0H657.896ZM28.7939 17.0039C22.2846 17.1681 17.0576 22.4761 17.0576 29L17.0615 121.31C17.2264 127.794 22.5554 133 29.1045 133C310.981 133 374.019 133 655.896 133C662.445 133 667.774 127.794 667.938 121.31L667.942 29C667.942 22.4762 662.716 17.1684 656.207 17.0039H59V86.1436C59 89.1301 60.2159 91.5195 62.0078 93.3115C63.7998 95.1035 66.1892 96 69.1758 96H95.1031C97.8651 96 100.432 97.4248 101.893 99.769L112.594 116.942C113.425 118.274 112.467 120 110.897 120H63.6719C59.4054 120 55.4803 119.317 51.8965 117.952C48.3978 116.587 45.3676 114.667 42.8076 112.192C40.333 109.632 38.4132 106.603 37.0479 103.104C35.6825 99.5205 35 95.5948 35 91.3281V17.0039H28.7939Z" fill="#D80000"/>
<path d="M571.853 32C575.097 32.0003 578.251 34.0414 579.612 36.9824L601.389 84.3115L622.657 37.0068L622.66 36.999L622.664 36.9902C624.052 33.9828 627.107 32.0002 630.428 32H641.74C646.598 32.0002 650.338 35.7363 650.34 40.5947L650.452 111.427V111.432C650.452 113.736 649.701 115.843 648.082 117.504L648.083 117.505C648.072 117.517 648.058 117.529 648.047 117.541C648.033 117.555 648.02 117.571 648.006 117.585L648.005 117.584C646.361 119.305 644.184 120.032 641.853 120.032H635.244C632.903 120.032 630.764 119.258 629.091 117.585C627.418 115.912 626.645 113.773 626.645 111.432V85.6758L613.104 115.04C611.745 117.986 608.588 120.032 605.34 120.032H597.5C594.179 120.032 591.124 118.047 589.736 115.041L576.196 85.6777V111.432C576.196 115.577 571.884 120.032 567.597 120.032H561.101C556.268 120.032 552.5 116.264 552.5 111.432V40.5996C552.5 35.2205 555.898 32 561.101 32H571.853Z" fill="#D80000"/>
<path d="M480.768 31.8984C485.628 31.8986 489.368 35.6361 489.368 40.498V83.375C489.368 89.0993 490.778 93.057 493.178 95.6904C495.408 98.1383 499.528 99.751 506.416 99.751C513.476 99.7509 517.658 98.1281 519.879 95.6904C522.278 93.057 523.688 89.099 523.688 83.375V40.498C523.689 35.6879 527.47 31.8984 532.288 31.8984H539.456C544.316 31.8987 548.055 35.6377 548.056 40.498V83.9346C548.056 90.3482 546.689 96.3055 543.923 101.756L543.919 101.765L543.915 101.772C541.051 107.333 536.417 111.734 530.226 115.03C523.901 118.398 515.902 119.975 506.416 119.975C496.93 119.975 488.931 118.398 482.606 115.03L482.599 115.027L482.592 115.023C476.474 111.723 471.888 107.322 469.029 101.772L469.017 101.749L469.005 101.725C466.324 96.2806 465 90.3342 465 83.9346V40.498C465 35.6652 468.773 31.8986 473.6 31.8984H480.768Z" fill="#D80000"/>
<path d="M394.176 32C396.7 32.0003 399.236 33.4027 400.909 35.233L435.59 78.5205L435.499 40.5206V40.5138C435.499 35.7073 439.334 32 444.117 32H451.299C456.124 32.0003 459.916 35.6575 459.916 40.5138L459.916 111.485C459.916 115.807 455.456 120 451.299 120H443.218C440.611 120 438.122 118.823 436.497 116.781L401.15 71.9587L401.333 111.472V111.485C401.333 116.397 397.438 120 392.716 120H385.534C380.737 120 376.916 116.314 376.916 111.485L376.916 40.5138C376.916 35.709 380.751 32 385.534 32H394.176Z" fill="#D80000"/>
<path d="M363.656 32C368.514 32.0002 372.254 35.7369 372.255 40.5957L372.244 111.396V111.399C372.244 116.213 368.43 120 363.644 120H356.476C351.644 120 347.876 116.232 347.876 111.399L348 40.5996C348 35.7779 351.753 32 356.6 32H363.656Z" fill="#D80000"/>
<path fill-rule="evenodd" clip-rule="evenodd" d="M304.433 32C316.662 32.0001 326.318 34.3137 332.84 39.4805C339.421 44.694 342.601 52.1214 342.601 61.3193C342.601 66.553 341.075 71.6611 338.159 76.6064L338.16 76.6074C335.728 80.776 332.196 83.9842 327.696 86.2734L340.74 106.686C342.068 108.633 342.941 110.749 342.941 112.968C342.941 118.046 337.994 120 333.67 120H326.277C324.848 120 323.198 119.637 321.979 118.858C320.87 118.152 319.764 117.177 319.057 116.056L302.803 90.5273H292.425V111.399C292.425 116.338 288.62 120 283.825 120H276.657C271.825 120 268.057 116.232 268.057 111.399V40.5996C268.057 35.7879 271.812 32 276.657 32H304.433ZM292.425 70.3037H305.104C309.057 70.3037 317.982 70.3037 317.982 61C317.982 52.5 309.057 52.2236 305.104 52.2236H292.425V70.3037Z" fill="#D80000"/>
<path fill-rule="evenodd" clip-rule="evenodd" d="M225.764 32C241.834 32.0001 259.919 38.0285 259.919 56.9395C259.919 63.2649 257.574 69.9264 252.976 74.3734C259.327 78.5877 263.057 85.9014 263.057 93.4859C263.056 114.29 243.899 120 226.66 120H200.662C195.814 120 192.057 116.204 192.057 111.365V40.6341C192.057 35.2464 195.444 32 200.662 32H225.764ZM216.439 99.807H225.077C229.077 99.807 235.077 99.807 235.077 92.5C235.077 85.3655 228.577 85.3655 225.077 85.3655H216.439V99.807ZM216.439 65.2853H225.077C229.077 65.2853 235.077 65.2853 235.077 59C235.077 52.193 229.577 52.2491 225.077 52.2491L216.439 52.193V65.2853Z" fill="#D80000"/>
<path d="M119.769 32C124.629 32.0002 128.369 35.7377 128.369 40.5996V83.2746C128.369 88.9989 129.779 92.9565 132.179 95.59C134.409 98.0379 138.529 99.6506 145.417 99.6506C152.477 99.6505 156.658 98.0275 158.879 95.59C161.278 92.9565 162.689 88.9987 162.689 83.2746L162.689 40.5996C162.69 35.7766 166.441 32 171.289 32H178.457C183.317 32.0002 187.056 35.7393 187.057 40.5996L187.057 83.8341C187.057 89.8682 185.623 96.2587 182.916 101.672C175.832 115.423 159.81 119.874 145.417 119.874C131.521 119.874 114.569 115.298 108.006 101.624C105.324 96.1802 104 90.2337 104 83.8341V40.5996C104 35.6682 107.805 32.0002 112.601 32H119.769Z" fill="#D80000"/>
</svg>
