<svg width="160" height="160" viewBox="0 0 160 160" fill="none" xmlns="http://www.w3.org/2000/svg">
<path fill-rule="evenodd" clip-rule="evenodd" d="M80 0C124.183 0 160 35.8172 160 80C160 124.183 124.183 160 80 160C35.8172 160 0 124.183 0 80C0 35.8172 35.8172 0 80 0ZM80 18.8271C73.1834 18.8271 67.1234 19.7782 61 21.8357V91.1396C61 94.1262 62.2159 96.5156 64.0078 98.3076C65.7998 100.1 68.1892 100.996 71.1758 100.996H97.1035C99.8653 100.996 102.432 102.421 103.893 104.765L114.595 121.938C115.425 123.271 114.467 124.996 112.897 124.996H65.6719C61.4054 124.996 57.4803 124.313 53.8965 122.948C50.3978 121.583 47.3676 119.663 44.8076 117.188C42.333 114.629 40.4132 111.599 39.0479 108.101C37.6825 104.517 37 100.591 37 96.3242V36.4912C25.78 47.5808 18.8271 62.9781 18.8271 80C18.8271 113.785 46.2151 141.173 80 141.173C113.785 141.173 141.173 113.785 141.173 80C141.173 46.2151 113.785 18.8271 80 18.8271Z" fill="#D80000"/>
<path d="M80 18.8271C73.1834 18.8271 67.1234 19.7782 61 21.8357V91.1396C61 94.1262 62.2159 96.5156 64.0078 98.3076C65.7998 100.1 68.1892 100.996 71.1758 100.996H97.1035C99.8653 100.996 102.432 102.421 103.893 104.765L114.595 121.938C115.425 123.271 114.467 124.996 112.897 124.996H65.6719C61.4054 124.996 57.4803 124.313 53.8965 122.948C50.3978 121.583 47.3676 119.663 44.8076 117.188C42.333 114.629 40.4132 111.599 39.0479 108.101C37.6825 104.517 37 100.591 37 96.3242V36.4912C25.78 47.5808 18.8271 62.9781 18.8271 80C18.8271 113.785 46.2151 141.173 80 141.173C113.785 141.173 141.173 113.785 141.173 80C141.173 46.2151 113.785 18.8271 80 18.8271Z" fill="#F5F9FA"/>
</svg>
